<?xml version="1.0" encoding="UTF-8"?>
<svg id="Layer_1" xmlns="http://www.w3.org/2000/svg" xmlns:xlink="http://www.w3.org/1999/xlink" version="1.1" viewBox="0 0 181.2 93.1">
  <!-- Generator: Adobe Illustrator 29.0.0, SVG Export Plug-In . SVG Version: 2.1.0 Build 186)  -->
  <defs>
    <style>
      .st0 {
        fill: none;
      }

      .st1 {
        fill: #e0f1fd;
      }

      .st2 {
        clip-path: url(#clippath-1);
      }

      .st3 {
        clip-path: url(#clippath-2);
      }

      .st4 {
        fill: #0092d3;
      }

      .st5 {
        fill: #fff;
      }

      .st6 {
        fill: #0362ad;
      }

      .st7 {
        clip-path: url(#clippath);
      }
    </style>
    <clipPath id="clippath">
      <path class="st0" d="M64.4,3.1v23.8c7-5,15.8-10.9,16-11.1h0c1.9-1.1,8.6-4.7,12.8-5.2,4.4-.5,7.2,1.9,8.5,6.9.3,1.2.9,2.3,1.7,3.2l13.1,10.7V3.1h-52.2Z"/>
    </clipPath>
    <clipPath id="clippath-1">
      <path class="st0" d="M93.2,10.7c-4.2.5-10.8,4.1-12.8,5.2-.2.1-9,6.1-16,11.1v14.5c1.2-.2,2.4-.2,3.5,0,0,0,2.5.1,5.6-3.8l1.1-1.1,3.8-3,6.8-7c.5-.6,1.2-1,1.9-1.2l2.4-.8c.3,0,.5-.3.7-.5.4-.5.9-.9,1.5-1.3l.7-.2c.7.3,1.4.8,2,1.3l.4.3c1.1.6,4.3,2.4,7.6,7.4,3.4,5.1,6.6,6.6,6.6,6.6,0,0,3.7,1.9,7.4,4.4v-10.7l-.8-.6-12.4-10.1c-.8-.9-1.4-2-1.7-3.2-1.3-4.6-3.6-7-7.4-7-.4,0-.7,0-1.1,0h0Z"/>
    </clipPath>
    <clipPath id="clippath-2">
      <path class="st0" d="M90.4,24.9l-.4.4-2.7.9c-.7.3-1.4.7-1.9,1.2l-6.8,7-3.8,3c-.4.3-.8.7-1.1,1.1-3.2,4-5.6,3.8-5.6,3.8-1.2-.1-2.4,0-3.5,0v14.3h52.2v-13.4c-3.7-2.5-7.4-4.4-7.4-4.4,0,0-3.2-1.6-6.6-6.6h0c-3.3-4.9-6.5-6.8-7.5-7.2l-.4-.2c-.6-.5-1.2-.9-1.9-1.3l-.7-.2c-.7.4-1.3.9-1.8,1.5h0Z"/>
    </clipPath>
  </defs>
  <g id="Grupo_121">
    <g id="Grupo_38">
      <g class="st7">
        <g id="Grupo_37">
          <rect id="Retângulo_18" class="st5" x="61.4" y="0" width="58.3" height="58.6"/>
        </g>
      </g>
    </g>
    <g id="Grupo_40">
      <g class="st2">
        <g id="Grupo_39">
          <rect id="Retângulo_19" class="st4" x="61.4" width="58.3" height="58.6"/>
        </g>
      </g>
    </g>
    <g id="Grupo_42">
      <g class="st3">
        <g id="Grupo_41">
          <rect id="Retângulo_20" class="st6" x="61.4" y="1.2" width="58.3" height="58.6"/>
        </g>
      </g>
    </g>
    <g id="Grupo_120">
      <path id="Caminho_26" class="st1" d="M10.5,71.1c3.7,0,7.3,1.5,7.3,5.8.2,3-2.1,5.5-5,5.8,1.3.5,2.4,1.5,3.1,2.7,0,.1,1.9,3.1,3.1,4.5,1.3,1.7,2.2,2.3,3.8,2.3v.3h-3c-3.3,0-5.8-.7-7.2-3.2-.7-1.3-2.1-4.3-2.5-5.2-.6-1.3-1.3-1.9-2.1-2.1v-.3h.9c1.6,0,3.3-.9,3.9-3.5v-1.5c0-2.9-1.5-4.2-3.5-4.3-.8,0-1.9,0-2.3,0v17.9c0,1.1.9,1.9,2,1.9h.4v.3s-9.3,0-9.3,0v-.3h.4c1.1,0,1.9-.8,2-1.9v-17c0-1.1-.9-1.9-2-1.9H0v-.3s10.5,0,10.5,0Z"/>
      <path id="Caminho_27" class="st1" d="M50.5,71.1v.3h-.3c-1.2,0-2.2.7-2.6,1.8l-5.1,16.5c-.4,1.1-.5,2.2-.5,3.4h-.3l-6.7-14.8-4.8,11.4c-.4,1.1-.7,2.2-.8,3.4h-.3l-7.3-19.9c-.5-1.1-1.5-1.7-2.6-1.8h-.2v-.3h9.3v.3h-.3c-.7,0-1.3.6-1.3,1.3,0,.2,0,.4.1.6l3.8,10.6,5.6-13.3h.3s6.1,13.5,6.1,13.5l3.1-10.8c.3-1.2-.3-1.9-1.2-1.9h-.3v-.3h6.4Z"/>
      <path id="Caminho_28" class="st1" d="M68.9,92.5h-15.8v-.3h.4c1.1,0,1.9-.9,2-1.9v-17.1c0-1-.9-1.8-2-1.8h-.4v-.3s11.7,0,11.7,0c1.2,0,2.5-.2,3.7-.6v5.4h-.3v-.4c.1-1.6-1.1-3-2.7-3.1,0,0-.2,0-.3,0h-5.1v8.9h4.1c1.4,0,2.6-1.1,2.6-2.5,0,0,0,0,0-.1v-.3h.3s0,7.1,0,7.1h-.3v-.3c0-1.4-1.1-2.6-2.5-2.6,0,0,0,0,0,0h-4.1v8.6h4c3.1,0,5-1.9,6-4.9h.3l-1.4,6.2Z"/>
      <path id="Caminho_29" class="st1" d="M97.5,71.1v.3h-.6c-1,0-1.9.8-1.9,1.8v15.8c0,1.3.1,2.6.4,3.9h-.3l-15.5-14.7v12.1c0,1,.9,1.8,1.9,1.8h.6v.3s-9.3,0-9.3,0v-.3h.6c1,0,1.9-.8,1.9-1.9v-15.9c0-1.3-.1-2.6-.4-3.8h.3l15.4,14.7v-12.1c0-1-.9-1.9-1.9-1.9h-.6v-.3s9.3,0,9.3,0Z"/>
      <path id="Caminho_30" class="st1" d="M118.7,86.4l-1.1,6.2h-16.9v-.3s11.2-19.9,11.2-19.9h-7.4c-1.6,0-3,1.1-3.1,2.8,0,.1,0,.2,0,.4v.4h-.3s0-5.3,0-5.3c1.2.4,2.5.5,3.7.6h9.7c1.1,0,2.2-.1,3.2-.4v.3l-11.4,20.3h6.4c2.7,0,4.7-1.9,5.5-4.9h.3Z"/>
      <path id="Caminho_31" class="st1" d="M146,81.8c0,6.9-4.7,11.1-12,11.1s-12-4.3-12-11.1,4.7-11.1,12-11.1,12,4.3,12,11.1M141,81.8c0-6.1-2.7-9.9-7-9.9s-7,3.8-7,9.9,2.7,9.9,7,9.9,7-3.8,7-9.9"/>
      <path id="Caminho_32" class="st1" d="M160,71.1c3.7,0,7.3,1.5,7.3,5.8.2,3-2.1,5.5-5,5.8,1.3.5,2.4,1.5,3.1,2.7,0,.1,1.9,3.1,3.1,4.5,1.3,1.7,2.2,2.3,3.8,2.3v.3h-3c-3.3,0-5.8-.7-7.2-3.2-.7-1.3-2.1-4.3-2.5-5.2-.6-1.3-1.3-1.9-2.1-2.1v-.3h.9c1.6,0,3.3-.9,3.9-3.5v-1.5c0-2.9-1.5-4.2-3.5-4.3-.8,0-1.9,0-2.3,0v17.9c0,1.1.9,1.9,2,1.9h.4v.3s-9.3,0-9.3,0v-.3h.4c1.1,0,1.9-.8,2-1.9v-17c0-1.1-.9-1.9-2-1.9h-.4v-.3s10.5,0,10.5,0Z"/>
      <path id="Caminho_33" class="st1" d="M181.2,92.5h-9.3v-.3h.4c1.1,0,1.9-.9,2-1.9v-17c0-1.1-.9-1.9-2-1.9h-.4v-.3s9.3,0,9.3,0v.3h-.4c-1.1,0-1.9.8-2,1.9v17c0,1.1.9,1.9,2,1.9h.4v.3Z"/>
    </g>
  </g>
</svg>