<?xml version="1.0" encoding="UTF-8"?>
<svg id="Layer_1" xmlns="http://www.w3.org/2000/svg" xmlns:xlink="http://www.w3.org/1999/xlink" version="1.1" viewBox="0 0 169.7 87.2">
  <!-- Generator: Adobe Illustrator 29.0.0, SVG Export Plug-In . SVG Version: 2.1.0 Build 186)  -->
  <defs>
    <style>
      .st0 {
        fill: none;
      }

      .st1 {
        clip-path: url(#clippath-1);
      }

      .st2 {
        clip-path: url(#clippath-3);
      }

      .st3 {
        clip-path: url(#clippath-4);
      }

      .st4 {
        clip-path: url(#clippath-2);
      }

      .st5 {
        clip-path: url(#clippath-7);
      }

      .st6 {
        clip-path: url(#clippath-6);
      }

      .st7 {
        clip-path: url(#clippath-9);
      }

      .st8 {
        clip-path: url(#clippath-8);
      }

      .st9 {
        clip-path: url(#clippath-5);
      }

      .st10 {
        fill: #0092d3;
      }

      .st11 {
        fill: #0362ad;
      }

      .st12 {
        fill: #336fb6;
      }

      .st13 {
        clip-path: url(#clippath);
      }
    </style>
    <clipPath id="clippath">
      <path class="st0" d="M60.3,2.9v22.4c6.6-4.7,14.8-10.3,15-10.4,1.8-1,8.1-4.4,12-4.8,4.2-.4,6.7,1.7,8,6.5.3,1.1.9,2.1,1.6,3l12.3,10.1V2.9h-49Z"/>
    </clipPath>
    <clipPath id="clippath-1">
      <path class="st0" d="M87.3,10c-3.9.4-10.2,3.8-12,4.8-.2.1-8.4,5.7-15,10.4v13.6c1.1-.1,2.2-.2,3.3,0,0,0,2.3.1,5.3-3.6l1.1-1,3.6-2.9,6.4-6.6c.5-.5,1.1-.9,1.8-1.2l2.2-.8c.3,0,.5-.2.7-.4.4-.5.9-.9,1.4-1.2h.6c.7.2,1.3.6,1.9,1.1l.3.3c1,.5,4.1,2.3,7.2,6.9,3.2,4.8,6.2,6.2,6.2,6.2,0,0,3.5,1.8,7,4.1v-10.1l-.7-.6-11.6-9.5c-.8-.8-1.3-1.9-1.6-3-1.2-4.3-3.4-6.6-7-6.6-.3,0-.7,0-1,0h0Z"/>
    </clipPath>
    <clipPath id="clippath-2">
      <path class="st0" d="M2.9,63.7v.3h.4c1,0,1.8.8,1.8,1.8v15.9c0,1-.8,1.8-1.8,1.8h-.4v.3s8.7,0,8.7,0v-.3h-.4c-1,0-1.8-.8-1.8-1.8v-16.8h.7c.5,0,1,0,1.5,0,1.9,0,3.3,1.3,3.4,4v1.4c-.6,2.5-2.2,3.3-3.7,3.3h-.9v.3c.7.1,1.4.7,1.9,1.9.4.9,1.7,3.7,2.4,4.9,1.3,2.3,3.6,3,6.7,3h2.8v-.3c-1.5,0-2.3-.6-3.6-2.2-1.1-1.3-2.8-4.1-2.9-4.2-.7-1.1-1.7-2-2.9-2.5,2.8-.3,4.8-2.7,4.7-5.5,0-4-3.4-5.4-6.8-5.4H2.9Z"/>
    </clipPath>
    <clipPath id="clippath-3">
      <path class="st0" d="M31.6,75.8l-3.5-10c-.3-.6,0-1.4.5-1.7.2,0,.4-.1.6-.1h.3v-.3h-8.8v.3h.2c1.1,0,2,.7,2.5,1.7l6.9,18.7h.3c0-1.1.3-2.2.7-3.2l4.5-10.7,6.3,13.9h.3c0-1.1.2-2.2.5-3.2l4.8-15.5c.4-1,1.4-1.7,2.5-1.7h.3v-.3h-6v.3h.3c.8,0,1.4.6,1.1,1.8l-2.9,10.1-5.7-12.6h-.3s-5.2,12.5-5.2,12.5Z"/>
    </clipPath>
    <clipPath id="clippath-4">
      <path class="st0" d="M61.7,63.7h-11v.3h.4c1,0,1.8.8,1.8,1.7v16c0,1-.8,1.8-1.8,1.8h-.4v.3s14.9,0,14.9,0l1.3-5.9h-.3c-.9,2.9-2.8,4.6-5.6,4.6h-3.8v-8.1h3.8c1.3,0,2.4,1.1,2.4,2.4,0,0,0,0,0,0v.2h.3s0-6.6,0-6.6h-.3v.3c0,1.3-1,2.4-2.3,2.5,0,0,0,0-.1,0h-3.8v-8.4h4.8c1.5,0,2.8,1.1,2.8,2.7,0,0,0,.2,0,.3v.3h.3s0-5,0-5c-1.1.3-2.3.5-3.4.5h0Z"/>
    </clipPath>
    <clipPath id="clippath-5">
      <path class="st0" d="M70.3,63.3c.2,1.2.3,2.4.3,3.6v14.9c0,1-.8,1.7-1.8,1.7h-.5v.3s8.7,0,8.7,0v-.3h-.5c-1,0-1.8-.8-1.8-1.7v-11.4l14.5,13.8h.3c-.2-1.2-.3-2.4-.3-3.7v-14.8c0-1,.8-1.7,1.8-1.7h.5v-.3s-8.7,0-8.7,0v.3h.5c1,0,1.8.8,1.8,1.7v11.4l-14.5-13.8h-.3Z"/>
    </clipPath>
    <clipPath id="clippath-6">
      <path class="st0" d="M94.1,68.2h.3v-.3c-.1-1.5,1-2.8,2.5-2.9.1,0,.2,0,.3,0h6.9l-10.5,18.7v.3s15.9,0,15.9,0l1-5.8h-.3c-.8,2.8-2.6,4.6-5.2,4.6h-6l10.7-19.1v-.2c-1,.3-2,.4-3,.4h-9.1c-1.2,0-2.4-.2-3.5-.5v5Z"/>
    </clipPath>
    <clipPath id="clippath-7">
      <path class="st0" d="M117.3,73.8c0-5.7,2.5-9.2,6.6-9.2s6.6,3.5,6.6,9.2-2.5,9.2-6.6,9.2-6.6-3.5-6.6-9.2M112.6,73.8c0,6.5,4.4,10.5,11.3,10.5s11.3-4,11.3-10.5h0c0-6.5-4.4-10.5-11.3-10.5s-11.3,4-11.3,10.5Z"/>
    </clipPath>
    <clipPath id="clippath-8">
      <path class="st0" d="M137.1,63.7v.3h.4c1,0,1.8.8,1.8,1.8v15.9c0,1-.8,1.8-1.8,1.8h-.4v.3s8.7,0,8.7,0v-.3h-.4c-1,0-1.8-.8-1.8-1.8v-16.8h.7c.5,0,1,0,1.5,0,1.9,0,3.3,1.3,3.4,4v1.4c-.6,2.5-2.2,3.3-3.7,3.3h-.9v.3c.8.1,1.4.7,1.9,1.9.4.9,1.7,3.7,2.4,4.9,1.3,2.3,3.6,3,6.7,3h2.8v-.3c-1.5,0-2.3-.6-3.6-2.2-1.1-1.3-2.8-4.1-2.9-4.2-.7-1.1-1.7-2-2.9-2.5,2.8-.3,4.8-2.7,4.7-5.5,0-4-3.4-5.4-6.8-5.4h-9.9Z"/>
    </clipPath>
    <clipPath id="clippath-9">
      <path class="st0" d="M158.2,63.7v.3h.4c1,0,1.8.8,1.8,1.8v15.9c0,1-.8,1.8-1.8,1.8h-.4v.3s8.7,0,8.7,0v-.3h-.4c-1,0-1.8-.8-1.8-1.8v-15.9c0-1,.8-1.8,1.8-1.8h.4v-.3s-8.7,0-8.7,0Z"/>
    </clipPath>
  </defs>
  <g id="Grupo_72">
    <g id="Grupo_2">
      <g class="st13">
        <g id="Grupo_1">
          <rect id="Retângulo_1" class="st11" x="57.4" width="54.8" height="55"/>
        </g>
      </g>
    </g>
    <g id="Grupo_4">
      <g class="st1">
        <g id="Grupo_3">
          <rect id="Retângulo_2" class="st10" x="57.4" width="54.8" height="55"/>
        </g>
      </g>
    </g>
    <g id="Grupo_8">
      <g class="st4">
        <g id="Grupo_7">
          <rect id="Retângulo_4" class="st12" x="0" y="60.3" width="169.7" height="26.9"/>
        </g>
      </g>
    </g>
    <g id="Grupo_10">
      <g class="st2">
        <g id="Grupo_9">
          <rect id="Retângulo_5" class="st12" x="0" y="60.3" width="169.7" height="26.9"/>
        </g>
      </g>
    </g>
    <g id="Grupo_12">
      <g class="st3">
        <g id="Grupo_11">
          <rect id="Retângulo_6" class="st12" x="0" y="60.3" width="169.7" height="26.9"/>
        </g>
      </g>
    </g>
    <g id="Grupo_14">
      <g class="st9">
        <g id="Grupo_13">
          <rect id="Retângulo_7" class="st12" y="60.3" width="169.7" height="26.9"/>
        </g>
      </g>
    </g>
    <g id="Grupo_16">
      <g class="st6">
        <g id="Grupo_15">
          <rect id="Retângulo_8" class="st12" x="0" y="60.3" width="169.7" height="26.9"/>
        </g>
      </g>
    </g>
    <g id="Grupo_18">
      <g class="st5">
        <g id="Grupo_17">
          <rect id="Retângulo_9" class="st12" x="0" y="60.3" width="169.7" height="26.9"/>
        </g>
      </g>
    </g>
    <g id="Grupo_20">
      <g class="st8">
        <g id="Grupo_19">
          <rect id="Retângulo_10" class="st12" x="0" y="60.3" width="169.7" height="26.9"/>
        </g>
      </g>
    </g>
    <g id="Grupo_22">
      <g class="st7">
        <g id="Grupo_21">
          <rect id="Retângulo_11" class="st12" x="0" y="60.3" width="169.7" height="26.9"/>
        </g>
      </g>
    </g>
  </g>
</svg>